<?xml version="1.0" encoding="UTF-8"?>
<svg xmlns="http://www.w3.org/2000/svg" xmlns:xlink="http://www.w3.org/1999/xlink" width="375pt" height="225pt" viewBox="0 0 375 225" version="1.2">
<defs>
<clipPath id="clip1">
  <path d="M 102.636719 26.234375 L 271.914062 26.234375 L 271.914062 198.710938 L 102.636719 198.710938 Z M 102.636719 26.234375 "/>
</clipPath>
<clipPath id="clip2">
  <path d="M 162.566406 35.175781 L 212.066406 35.175781 L 212.066406 89.175781 L 162.566406 89.175781 Z M 162.566406 35.175781 "/>
</clipPath>
</defs>
<g id="surface1">
<g clip-path="url(#clip1)" clip-rule="nonzero">
<path style=" stroke:none;fill-rule:nonzero;fill:rgb(0%,0%,0%);fill-opacity:1;" d="M 271.785156 62.226562 C 271.761719 62.144531 271.726562 62.070312 271.695312 61.996094 C 271.632812 61.835938 271.566406 61.679688 271.476562 61.53125 C 271.425781 61.449219 271.371094 61.375 271.3125 61.300781 C 271.214844 61.167969 271.109375 61.050781 270.988281 60.941406 C 270.917969 60.871094 270.847656 60.8125 270.769531 60.75 C 270.722656 60.71875 270.6875 60.675781 270.644531 60.644531 C 270.539062 60.574219 270.421875 60.535156 270.3125 60.476562 C 270.257812 60.449219 270.214844 60.40625 270.15625 60.378906 L 188.351562 26.449219 C 187.65625 26.164062 186.882812 26.164062 186.191406 26.449219 L 104.386719 60.378906 C 104.328125 60.40625 104.28125 60.449219 104.226562 60.476562 C 104.117188 60.53125 104.003906 60.574219 103.902344 60.640625 C 103.855469 60.671875 103.820312 60.714844 103.777344 60.75 C 103.699219 60.808594 103.628906 60.871094 103.558594 60.9375 C 103.441406 61.046875 103.335938 61.167969 103.234375 61.296875 C 103.175781 61.375 103.121094 61.445312 103.070312 61.527344 C 102.980469 61.675781 102.914062 61.832031 102.851562 61.992188 C 102.820312 62.070312 102.785156 62.140625 102.761719 62.222656 C 102.695312 62.472656 102.652344 62.730469 102.652344 62.992188 L 102.652344 161.957031 C 102.652344 163.101562 103.339844 164.132812 104.390625 164.566406 L 186.195312 198.496094 C 186.234375 198.511719 186.273438 198.507812 186.308594 198.519531 C 186.621094 198.636719 186.945312 198.710938 187.277344 198.710938 C 187.609375 198.710938 187.929688 198.636719 188.246094 198.519531 C 188.28125 198.507812 188.320312 198.511719 188.355469 198.496094 L 270.160156 164.566406 C 271.214844 164.132812 271.902344 163.101562 271.902344 161.957031 L 271.902344 62.992188 C 271.902344 62.730469 271.855469 62.472656 271.785156 62.226562 Z M 187.277344 32.121094 L 261.703125 62.992188 L 187.277344 93.863281 L 112.847656 62.992188 Z M 108.292969 67.222656 L 184.457031 98.8125 L 184.457031 191.652344 L 108.292969 160.066406 Z M 266.261719 160.066406 L 190.097656 191.65625 L 190.097656 98.8125 L 266.261719 67.222656 Z M 266.261719 160.066406 "/>
</g>
<g clip-path="url(#clip2)" clip-rule="nonzero">
<path style=" stroke:none;fill-rule:nonzero;fill:rgb(54.899597%,32.159424%,100%);fill-opacity:1;" d="M 162.648438 50.871094 C 183.683594 61.175781 180.339844 75.113281 174.53125 89.160156 C 181.363281 72.824219 191.546875 65.035156 212.003906 73.878906 C 192.070312 63.890625 191.347656 51.015625 199.246094 35.175781 C 192.410156 48.746094 184.0625 60.351562 162.648438 50.871094 Z M 162.648438 50.871094 "/>
</g>
</g>
</svg>
